{"title":"Oz the Great and Powerful 2013 TS XviD AC3 - TODE","uid":8246635,"size":731200504,"categoryP":"video","categoryS":"movies","magnet":"?xt=urn:btih:eeeba4e199439a7a2c875c1538ef8c1be563463b&amp;dn=Oz+the+Great+and+Powerful+2013+TS+XviD+AC3+-+TODE&amp;tr=udp%3A%2F%2Ftracker.openbittorrent.com%3A80&amp;tr=udp%3A%2F%2Fopen.demonii.com%3A1337&amp;tr=udp%3A%2F%2Ftracker.coppersurfer.tk%3A6969&amp;tr=udp%3A%2F%2Fexodus.desync.com%3A6969","seeders":3,"leechers":0,"uploader":"xxxlavalxxx","files":2,"time":1363076852,"description":" &lt;a href=&quot;\nhttp://www.shotpix.com/images/79794142733357814726.jpg&quot; rel=&quot;nofollow&quot; target=&quot;_NEW&quot;&gt;\nhttp://www.shotpix.com/images/79794142733357814726.jpg&lt;/a&gt;\n\n &lt;a href=&quot;\nhttp://www.imdb.com/title/tt1623205/&quot; rel=&quot;nofollow&quot; target=&quot;_NEW&quot;&gt;\nhttp://www.imdb.com/title/tt1623205/&lt;/a&gt;\n\n\n\nA small-time magician arrives in an enchanted land and is forced to decide if he will be a good man or a great one. \n\n\n\nDirector:\n Sam Raimi\n\nWriters:\n Mitchell Kapner (screenplay), David Lindsay-Abaire (screenplay)\n\n James Franco, Michelle Williams, Rachel Weisz\n\nGenres:\n Adventure | Family | Fantasy \n\nCountry:\nUSA\n\nLanguage:\nEnglish \n\n\nFormat                                   : AVI\nFormat/Info                              : Audio Video Interleave\nFile size                                : 697 MiB\nDuration                                 : 2h 4mn\nOverall bit rate                         : 785 Kbps\nWriting application                      : Lavf54.59.103\n\nVideo\nID                                       : 0\nFormat                                   : MPEG-4 Visual\nFormat profile                           : Simple@L3\nFormat settings, BVOP                    : No\nFormat settings, QPel                    : No\nFormat settings, GMC                     : No warppoints\nFormat settings, Matrix                  : Default (H.263)\nCodec ID                                 : XVID\nCodec ID/Hint                            : XviD\nDuration                                 : 2h 4mn\nBit rate                                 : 710 Kbps\nWidth                                    : 640 pixels\nHeight                                   : 240 pixels\nDisplay aspect ratio                     : 2.588\nFrame rate                               : 25.000 fps\nColor space                              : YUV\nChroma subsampling                       : 4:2:0\nBit depth                                : 8 bits\nScan type                                : Progressive\nCompression mode                         : Lossy\nBits/(Pixel*Frame)                       : 0.185\nStream size                              : 631 MiB (90%)\nWriting library                          : XviD 64\n\nAudio\nID                                       : 1\nFormat                                   : AC-3\nFormat/Info                              : Audio Coding 3\nMode extension                           : CM (complete main)\nFormat settings, Endianness              : Big\nCodec ID                                 : 2000\nDuration                                 : 2h 4mn\nBit rate mode                            : Constant\nBit rate                                 : 64.0 Kbps\nChannel(s)                               : 2 channels\nChannel positions                        : Front: L R\nSampling rate                            : 48.0 KHz\nBit depth                                : 16 bits\nCompression mode                         : Lossy\nStream size                              : 56.9 MiB (8%)\nAlignment                                : Aligned on interleaves\nInterleave, duration                     : 32 ms (0.80 video frame)\n\n\n &lt;a href=&quot;\nhttp://www.shotpix.com/images/57075632090464896857.png&quot; rel=&quot;nofollow&quot; target=&quot;_NEW&quot;&gt;\nhttp://www.shotpix.com/images/57075632090464896857.png&lt;/a&gt; &lt;a href=&quot;\nhttp://www.shotpix.com/images/13891306916764370077.png&quot; rel=&quot;nofollow&quot; target=&quot;_NEW&quot;&gt;\nhttp://www.shotpix.com/images/13891306916764370077.png&lt;/a&gt; &lt;a href=&quot;\nhttp://www.shotpix.com/images/70884561670082500567.png&quot; rel=&quot;nofollow&quot; target=&quot;_NEW&quot;&gt;\nhttp://www.shotpix.com/images/70884561670082500567.png&lt;/a&gt; &lt;a href=&quot;\nhttp://www.shotpix.com/images/85002916643693082388.png&quot; rel=&quot;nofollow&quot; target=&quot;_NEW&quot;&gt;\nhttp://www.shotpix.com/images/85002916643693082388.png&lt;/a&gt; &lt;a href=&quot;\nhttp://www.shotpix.com/images/00845141888221106164.png&quot; rel=&quot;nofollow&quot; target=&quot;_NEW&quot;&gt;\nhttp://www.shotpix.com/images/00845141888221106164.png&lt;/a&gt;\n","torrent":{"xt":"urn:btih:eeeba4e199439a7a2c875c1538ef8c1be563463b","amp;dn":"Oz+the+Great+and+Powerful+2013+TS+XviD+AC3+-+TODE","amp;tr":["udp%3A%2F%2Ftracker.openbittorrent.com%3A80","udp%3A%2F%2Fopen.demonii.com%3A1337","udp%3A%2F%2Ftracker.coppersurfer.tk%3A6969","udp%3A%2F%2Fexodus.desync.com%3A6969"],"infoHash":"eeeba4e199439a7a2c875c1538ef8c1be563463b","infoHashBuffer":{"type":"Buffer","data":[238,235,164,225,153,67,154,122,44,135,92,21,56,239,140,27,229,99,70,59]},"announce":[],"urlList":[]}}